# Blender v2.78 (sub 0) OBJ File: ''
# www.blender.org
o Cube_Cube.001
v -1.000000 0.000000 3.000000
v -1.000000 4.000000 3.000000
v -1.000000 0.000000 -3.000000
v -1.000000 4.000000 -3.000000
v 1.000000 0.000000 3.000000
v 1.000000 4.000000 3.000000
v 1.000000 0.000000 -3.000000
v 1.000000 4.000000 -3.000000
v -1.000000 0.000000 7.000000
v 1.000000 0.000000 7.000000
vt 0.3128 0.3128
vt 0.3128 0.0123
vt 0.7636 0.0123
vt 0.4877 0.8374
vt 0.7882 0.9877
vt 0.4877 0.9877
vt 0.7636 0.6380
vt 0.3128 0.6380
vt 0.3128 0.3374
vt 0.9385 0.4373
vt 0.7882 0.0123
vt 0.9385 0.0123
vt 0.7636 0.6626
vt 0.3128 0.8128
vt 0.3128 0.6626
vt 0.4631 0.8374
vt 0.0123 0.9877
vt 0.0123 0.8374
vt 0.0123 0.8128
vt 0.0123 0.6626
vt 0.0123 0.3374
vt 0.0123 0.3128
vt 0.7636 0.3128
vt 0.7636 0.3374
vt 0.7882 0.8374
vt 0.7882 0.4373
vt 0.7636 0.8128
vt 0.4631 0.9877
vn -1.0000 0.0000 0.0000
vn 0.0000 0.0000 -1.0000
vn 1.0000 0.0000 0.0000
vn 0.0000 0.7071 0.7071
vn 0.0000 -1.0000 0.0000
vn 0.0000 1.0000 0.0000
s off
f 1/1/1 2/2/1 4/3/1
f 3/4/2 8/5/2 7/6/2
f 8/7/3 6/8/3 5/9/3
f 6/10/4 9/11/4 10/12/4
f 3/13/5 5/14/5 1/15/5
f 8/16/6 2/17/6 6/18/6
f 1/15/5 10/19/5 9/20/5
f 5/9/3 6/8/3 10/21/3
f 1/1/1 9/22/1 2/2/1
f 3/23/1 1/1/1 4/3/1
f 7/24/3 8/7/3 5/9/3
f 3/4/2 4/25/2 8/5/2
f 6/10/4 2/26/4 9/11/4
f 3/13/5 7/27/5 5/14/5
f 8/16/6 4/28/6 2/17/6
f 1/15/5 5/14/5 10/19/5
