# Blender v2.78 (sub 0) OBJ File: 'littleship.blend'
# www.blender.org
o Cube_Cube.001
v 0.007097 -0.053353 0.034477
v 0.007097 0.542048 0.034477
v 0.007097 -0.053353 0.020283
v 0.007097 0.542048 0.020283
v 0.073646 -0.030000 0.086434
v 0.073646 -0.029329 -0.147440
v 0.037158 -0.023719 0.184706
v 0.058723 -0.028349 0.134434
v 0.078006 -0.031677 0.020581
v 0.076363 -0.031677 -0.065676
v 0.053523 -0.024768 -0.217001
v 0.053523 -0.051599 -0.211635
v 0.064926 -0.057502 -0.147440
v 0.038983 -0.024768 -0.217001
v 0.038983 -0.061403 -0.209728
v 0.038983 -0.085139 -0.205113
v 0.072140 -0.059859 0.018293
v 0.070540 -0.059859 -0.065676
v 0.060494 -0.065719 -0.147440
v 0.027967 -0.053604 0.174228
v 0.065195 -0.059534 0.079613
v 0.049809 -0.057656 0.125935
v 0.048653 -0.088033 0.017789
v 0.047094 -0.088033 -0.064000
v 0.042732 -0.088025 0.073672
v 0.033547 -0.087860 0.117345
v 0.019311 -0.082727 0.154589
v 0.045110 -0.086586 -0.135395
v 0.054392 -0.031677 -0.065676
v 0.055563 -0.031677 0.020581
v 0.041828 -0.028349 0.134434
v 0.026468 -0.023719 0.184706
v 0.052457 -0.030000 0.086434
v 0.052457 -0.029329 -0.147440
v 0.055808 -0.025286 -0.209100
v 0.054818 -0.052270 -0.204343
v 0.041427 -0.061893 -0.202654
v 0.039679 -0.085303 -0.197195
v 0.040514 -0.025286 -0.209100
v 0.029970 -0.049061 -0.212169
v 0.001654 0.010437 0.026543
v 0.001654 0.528572 0.024857
v 0.001654 0.010807 -0.223165
v 0.001654 0.015196 0.066122
v 0.001654 0.451368 0.032518
v 0.001654 -0.025861 0.222147
v 0.004525 0.014664 0.030746
v 0.004525 0.014664 -0.232726
v 0.004525 0.005615 0.030746
v 0.004525 0.005615 -0.232726
v 0.040375 -0.042980 -0.019408
v 0.022952 -0.001179 -0.019408
v 0.040375 -0.042980 -0.145814
v 0.022952 -0.001179 -0.145814
v 0.032690 -0.032127 0.111488
v 0.022437 -0.019224 0.105449
v 0.032690 -0.032127 0.071810
v 0.022437 -0.019224 0.077850
v 0.006085 -0.292923 0.016433
v 0.011187 -0.085224 0.078496
v 0.006085 -0.292743 -0.085882
v 0.011187 -0.085224 -0.106447
v -0.007097 -0.053353 0.034477
v -0.007097 0.542048 0.034477
v -0.007097 -0.053353 0.020283
v -0.007097 0.542048 0.020283
v 0.000000 -0.053353 0.020283
v 0.000000 0.542048 0.020283
v 0.000000 -0.053353 0.034477
v 0.000000 0.542048 0.034477
v -0.073646 -0.030000 0.086434
v -0.073646 -0.029329 -0.147440
v 0.000000 -0.020138 0.231720
v -0.037158 -0.023719 0.184706
v -0.058723 -0.028349 0.134434
v -0.078006 -0.031677 0.020581
v -0.076363 -0.031677 -0.065676
v -0.053523 -0.024768 -0.217001
v 0.000000 -0.024768 -0.217001
v 0.000000 -0.050459 0.218714
v -0.053523 -0.051599 -0.211635
v 0.000000 -0.051599 -0.211635
v -0.064926 -0.057502 -0.147440
v -0.038983 -0.024768 -0.217001
v -0.038983 -0.061403 -0.209728
v 0.000000 -0.085139 -0.205113
v -0.038983 -0.085139 -0.205113
v -0.072140 -0.059859 0.018293
v -0.070540 -0.059859 -0.065676
v -0.060494 -0.065719 -0.147440
v -0.027967 -0.053604 0.174228
v -0.065195 -0.059534 0.079613
v -0.049809 -0.057656 0.125935
v 0.000000 -0.078317 0.187761
v -0.048653 -0.088033 0.017789
v -0.047094 -0.088033 -0.064000
v -0.042732 -0.088025 0.073672
v -0.033547 -0.087860 0.117345
v -0.019311 -0.082727 0.154589
v -0.045110 -0.086586 -0.135395
v 0.000000 -0.096317 0.140135
v 0.000000 -0.101804 0.104130
v 0.000000 -0.103972 0.013717
v 0.000000 -0.097484 -0.135709
v 0.000000 -0.103593 0.063803
v 0.000000 -0.102925 -0.064433
v 0.000000 -0.030000 0.086434
v 0.000000 -0.029329 -0.147440
v 0.000000 -0.023719 0.184706
v 0.000000 -0.028349 0.134434
v 0.000000 -0.031677 0.020581
v 0.000000 -0.031677 -0.065676
v -0.054392 -0.031677 -0.065676
v -0.055563 -0.031677 0.020581
v -0.041828 -0.028349 0.134434
v -0.026468 -0.023719 0.184706
v -0.052457 -0.030000 0.086434
v -0.052457 -0.029329 -0.147440
v 0.000000 -0.021331 0.216060
v -0.055808 -0.025286 -0.209100
v -0.054818 -0.052270 -0.204343
v -0.041427 -0.061893 -0.202654
v -0.039679 -0.085303 -0.197195
v 0.000000 -0.086541 -0.197230
v -0.040514 -0.025286 -0.209100
v 0.000000 -0.025286 -0.209100
v -0.029970 -0.049061 -0.212169
v -0.001654 0.010437 0.026543
v -0.001654 0.528572 0.024857
v -0.001654 0.010807 -0.223165
v -0.001654 0.015196 0.066122
v -0.001654 0.451368 0.032518
v -0.001654 -0.025861 0.222147
v -0.004525 0.014664 0.030746
v -0.004525 0.014664 -0.232726
v -0.004525 0.005615 0.030746
v -0.004525 0.005615 -0.232726
v 0.000000 0.005615 0.030746
v 0.000000 0.005615 -0.232726
v 0.000000 0.014664 0.030746
v 0.000000 0.014664 -0.232726
v -0.040375 -0.042980 -0.019408
v -0.022952 -0.001179 -0.019408
v -0.040375 -0.042980 -0.145814
v -0.022952 -0.001179 -0.145814
v 0.000000 -0.042980 -0.145814
v 0.000000 -0.001179 -0.145814
v 0.000000 -0.042980 -0.019408
v 0.000000 -0.001179 -0.019408
v -0.032690 -0.032127 0.111488
v -0.022437 -0.019224 0.105449
v -0.032690 -0.032127 0.071810
v -0.022437 -0.019224 0.077850
v 0.000000 -0.032127 0.071810
v 0.000000 -0.019224 0.077850
v 0.000000 -0.032127 0.111488
v 0.000000 -0.019224 0.105449
v -0.006085 -0.292923 0.016433
v -0.011187 -0.085224 0.078496
v -0.006085 -0.292743 -0.085882
v -0.011187 -0.085224 -0.106447
v 0.000000 -0.306143 -0.090869
v 0.000000 -0.085224 -0.106447
v 0.000000 -0.306143 0.022562
v 0.000000 -0.085224 0.094212
vn 0.0000 0.0000 -1.0000
vn 0.0000 0.7071 -0.7071
vn 0.5773 0.5773 -0.5773
vn 0.7071 0.0000 -0.7071
vn 0.5773 0.5773 0.5773
vn 0.7071 0.0000 0.7071
vn 0.0000 0.7071 0.7071
vn 0.0000 0.0000 1.0000
vn -0.0001 -0.1950 -0.9808
vn 0.6133 -0.4194 -0.6693
vn 0.3794 -0.3795 -0.8438
vn 0.8425 -0.4796 -0.2452
vn 0.4928 0.5615 -0.6647
vn 0.7312 0.6697 -0.1296
vn 0.0002 0.6591 -0.7520
vn 0.7874 0.6161 -0.0192
vn 0.7945 0.6068 0.0215
vn 0.8970 -0.4407 0.0351
vn 0.8979 -0.4387 -0.0347
vn 0.8960 -0.4162 -0.1546
vn 0.7996 0.5940 -0.0880
vn 0.8164 -0.5575 -0.1505
vn 0.8205 -0.5250 -0.2261
vn 0.8106 0.5639 0.1578
vn 0.7883 0.5491 0.2775
vn 0.8292 -0.4519 0.3290
vn 0.8740 -0.4535 0.1747
vn 0.7692 -0.4431 0.4605
vn 0.7373 0.5570 0.3822
vn 0.0000 0.3899 0.9208
vn 0.0000 -0.5907 0.8068
vn 0.5716 -0.8202 0.0227
vn 0.5544 -0.8317 -0.0302
vn 0.5997 -0.7670 0.2282
vn 0.5862 -0.8035 0.1035
vn 0.0000 -0.7988 0.6016
vn 0.5887 -0.7226 0.3623
vn 0.5601 -0.8227 -0.0967
vn 0.6102 -0.7700 -0.1865
vn 0.0000 -0.9666 0.2563
vn 0.0000 -0.9926 0.1216
vn 0.0000 -0.9992 0.0400
vn 0.0000 -1.0000 0.0056
vn 0.0000 -0.9995 -0.0309
vn 0.0000 -0.9969 -0.0785
vn 0.0000 -0.9948 -0.1021
vn 0.0000 0.9999 -0.0127
vn 0.0000 0.9999 0.0143
vn 0.0000 0.9965 -0.0838
vn 0.0000 0.9980 -0.0631
vn 0.0000 0.9995 -0.0299
vn 0.0000 0.9989 0.0471
vn 0.0000 0.9971 -0.0759
vn 0.0000 0.9978 0.0654
vn 0.0000 0.6592 -0.7520
vn 0.0000 -0.7390 -0.6737
vn 0.5134 -0.6092 -0.6044
vn 0.0000 -0.1935 -0.9811
vn 1.0000 0.0000 0.0000
vn 0.0000 -1.0000 0.0000
vn 0.0000 -0.7071 -0.7071
vn 0.5773 -0.5773 -0.5773
vn 0.7071 -0.7071 0.0000
vn 0.7071 0.7071 0.0000
vn 0.0000 1.0000 0.0000
vn 0.4433 0.6650 -0.6010
vn 0.7389 0.3080 -0.5993
vn 0.4433 0.6650 0.6010
vn 0.7389 0.3080 0.5993
vn 0.0000 0.4239 -0.9057
vn 0.0000 0.8438 -0.5367
vn 0.3374 0.8291 -0.4458
vn 0.5518 0.6706 -0.4957
vn 0.3374 0.8291 0.4458
vn 0.5518 0.6706 0.4957
vn 0.0000 0.8438 0.5367
vn 0.0000 0.4239 0.9057
vn 0.0000 -0.7214 -0.6925
vn 0.0000 -0.0883 -0.9961
vn 0.8062 -0.0667 -0.5878
vn 0.8515 -0.2086 -0.4810
vn 0.9363 -0.1196 0.3301
vn 0.9514 -0.2190 0.2165
vn 0.0000 -0.8174 0.5760
vn 0.0000 -0.3134 0.9496
vn -0.7071 0.0000 -0.7071
vn -0.5773 0.5773 -0.5773
vn -0.7071 0.0000 0.7071
vn -0.5773 0.5773 0.5773
vn 0.0001 -0.1950 -0.9808
vn -0.3794 -0.3795 -0.8438
vn -0.6133 -0.4194 -0.6693
vn -0.8425 -0.4796 -0.2452
vn -0.7312 0.6697 -0.1296
vn -0.4928 0.5615 -0.6647
vn -0.0002 0.6591 -0.7520
vn -0.7874 0.6161 -0.0192
vn -0.8979 -0.4387 -0.0347
vn -0.8970 -0.4407 0.0351
vn -0.7945 0.6068 0.0215
vn -0.7996 0.5940 -0.0880
vn -0.8960 -0.4162 -0.1546
vn -0.8164 -0.5575 -0.1505
vn -0.8205 -0.5250 -0.2261
vn -0.8106 0.5639 0.1578
vn -0.8740 -0.4535 0.1747
vn -0.8292 -0.4519 0.3290
vn -0.7883 0.5491 0.2775
vn -0.7692 -0.4431 0.4605
vn -0.7373 0.5570 0.3822
vn -0.5544 -0.8317 -0.0302
vn -0.5716 -0.8202 0.0227
vn -0.5862 -0.8035 0.1035
vn -0.5997 -0.7670 0.2282
vn -0.5887 -0.7226 0.3623
vn -0.5601 -0.8227 -0.0967
vn -0.6102 -0.7700 -0.1865
vn -0.5134 -0.6092 -0.6044
vn -1.0000 0.0000 0.0000
vn -0.7071 -0.7071 0.0000
vn -0.5773 -0.5773 -0.5773
vn -0.7071 0.7071 0.0000
vn -0.7389 0.3080 -0.5993
vn -0.4433 0.6650 -0.6010
vn -0.7389 0.3080 0.5993
vn -0.4433 0.6650 0.6010
vn -0.5518 0.6706 -0.4957
vn -0.3374 0.8291 -0.4458
vn -0.5518 0.6706 0.4957
vn -0.3374 0.8291 0.4458
vn -0.8515 -0.2086 -0.4810
vn -0.8062 -0.0667 -0.5878
vn -0.9514 -0.2190 0.2165
vn -0.9363 -0.1196 0.3301
s 1
f 67//1 68//2 4//3 3//4
f 3//4 4//3 2//5 1//6
f 4//3 68//2 70//7 2//5
f 1//6 2//5 70//7 69//8
f 40//9 12//10 15//11
f 36//12 12//10 11//13 35//14
f 12//10 40//9 14//15 11//13
f 10//16 9//17 17//18 18//19
f 10//16 18//19 13//20 6//21
f 18//19 19//22 13//20
f 36//12 37//23 15//11 12//10
f 5//24 8//25 22//26 21//27
f 5//24 21//27 17//18 9//17
f 20//28 22//26 8//25 7//29
f 73//30 80//31 20//28 7//29
f 18//19 17//18 23//32 24//33
f 21//27 22//26 26//34 25//35
f 21//27 25//35 23//32 17//18
f 20//28 80//31 94//36 27//37
f 20//28 27//37 26//34 22//26
f 18//19 24//33 28//38 19//22
f 38//39 37//23 19//22 28//38
f 27//37 94//36 101//40
f 26//34 27//37 101//40 102//41
f 25//35 26//34 102//41 105//42
f 23//32 25//35 105//42 103//43
f 24//33 23//32 103//43 106//44
f 28//38 24//33 106//44 104//45
f 124//46 38//39 28//38 104//45
f 30//47 29//48 112//48 111//47
f 32//49 31//50 110//50 109//49
f 33//51 30//47 111//47 107//51
f 29//48 34//52 108//52 112//48
f 31//50 33//51 107//51 110//50
f 32//49 109//49 119//53
f 8//25 5//24 33//51 31//50
f 10//16 6//21 34//52 29//48
f 5//24 9//17 30//47 33//51
f 7//29 8//25 31//50 32//49
f 9//17 10//16 29//48 30//47
f 35//14 11//13 14//15 39//54
f 126//54 108//52 34//52 39//54
f 7//29 32//49 119//53 73//30
f 79//55 126//54 39//54 14//15
f 6//21 35//14 39//54 34//52
f 86//56 16//57 38//39 124//46
f 16//57 15//11 37//23 38//39
f 13//20 19//22 37//23 36//12
f 13//20 36//12 35//14 6//21
f 14//15 40//9 82//58 79//55
f 40//9 15//11 82//58
f 86//56 82//58 15//11 16//57
f 41//59 43//59 42//59
f 44//59 45//59 46//59
f 138//60 139//61 50//62 49//63
f 49//63 50//62 48//3 47//64
f 50//62 139//61 141//2 48//3
f 47//64 48//3 141//2 140//65
f 146//1 147//2 54//66 53//67
f 53//67 54//66 52//68 51//69
f 54//66 147//2 149//7 52//68
f 51//69 52//68 149//7 148//8
f 154//70 155//71 58//72 57//73
f 57//73 58//72 56//74 55//75
f 58//72 155//71 157//76 56//74
f 55//75 56//74 157//76 156//77
f 162//78 163//79 62//80 61//81
f 61//81 62//80 60//82 59//83
f 162//78 61//81 59//83 164//84
f 59//83 60//82 165//85 164//84
f 67//1 65//86 66//87 68//2
f 65//86 63//88 64//89 66//87
f 66//87 64//89 70//7 68//2
f 63//88 69//8 70//7 64//89
f 127//90 85//91 81//92
f 121//93 120//94 78//95 81//92
f 81//92 78//95 84//96 127//90
f 77//97 89//98 88//99 76//100
f 77//97 72//101 83//102 89//98
f 89//98 83//102 90//103
f 121//93 81//92 85//91 122//104
f 71//105 92//106 93//107 75//108
f 71//105 76//100 88//99 92//106
f 91//109 74//110 75//108 93//107
f 73//30 74//110 91//109 80//31
f 89//98 96//111 95//112 88//99
f 92//106 97//113 98//114 93//107
f 92//106 88//99 95//112 97//113
f 91//109 99//115 94//36 80//31
f 91//109 93//107 98//114 99//115
f 89//98 90//103 100//116 96//111
f 123//117 100//116 90//103 122//104
f 99//115 101//40 94//36
f 98//114 102//41 101//40 99//115
f 97//113 105//42 102//41 98//114
f 95//112 103//43 105//42 97//113
f 96//111 106//44 103//43 95//112
f 100//116 104//45 106//44 96//111
f 124//46 104//45 100//116 123//117
f 114//47 111//47 112//48 113//48
f 116//49 109//49 110//50 115//50
f 117//51 107//51 111//47 114//47
f 113//48 112//48 108//52 118//52
f 115//50 110//50 107//51 117//51
f 116//49 119//53 109//49
f 75//108 115//50 117//51 71//105
f 77//97 113//48 118//52 72//101
f 71//105 117//51 114//47 76//100
f 74//110 116//49 115//50 75//108
f 76//100 114//47 113//48 77//97
f 120//94 125//54 84//96 78//95
f 126//54 125//54 118//52 108//52
f 74//110 73//30 119//53 116//49
f 79//55 84//96 125//54 126//54
f 72//101 118//52 125//54 120//94
f 86//56 124//46 123//117 87//118
f 87//118 123//117 122//104 85//91
f 83//102 121//93 122//104 90//103
f 83//102 72//101 120//94 121//93
f 84//96 79//55 82//58 127//90
f 127//90 82//58 85//91
f 86//56 87//118 85//91 82//58
f 128//119 129//119 130//119
f 131//119 133//119 132//119
f 138//60 136//120 137//121 139//61
f 136//120 134//122 135//87 137//121
f 137//121 135//87 141//2 139//61
f 134//122 140//65 141//2 135//87
f 146//1 144//123 145//124 147//2
f 144//123 142//125 143//126 145//124
f 145//124 143//126 149//7 147//2
f 142//125 148//8 149//7 143//126
f 154//70 152//127 153//128 155//71
f 152//127 150//129 151//130 153//128
f 153//128 151//130 157//76 155//71
f 150//129 156//77 157//76 151//130
f 162//78 160//131 161//132 163//79
f 160//131 158//133 159//134 161//132
f 162//78 164//84 158//133 160//131
f 158//133 164//84 165//85 159//134
