# Blender v2.79 (sub 0) OBJ File: 'launchpad.blend'
# www.blender.org
mtllib launchpad_effect.mtl
o Cylinder
v -0.000000 0.080472 -0.366408
v -0.000000 0.280472 -0.309286
v 0.183204 0.080472 -0.317318
v 0.154643 0.280472 -0.267850
v 0.317318 0.080472 -0.183204
v 0.267850 0.280472 -0.154643
v 0.366408 0.080472 0.000000
v 0.309286 0.280472 0.000000
v 0.317318 0.080472 0.183204
v 0.267850 0.280472 0.154643
v 0.183204 0.080472 0.317319
v 0.154643 0.280472 0.267850
v 0.000000 0.080472 0.366408
v 0.000000 0.280472 0.309286
v -0.183204 0.080472 0.317319
v -0.154643 0.280472 0.267850
v -0.317318 0.080472 0.183204
v -0.267850 0.280472 0.154643
v -0.366408 0.080472 0.000000
v -0.309286 0.280472 0.000000
v -0.317319 0.080472 -0.183204
v -0.267850 0.280472 -0.154643
v -0.183204 0.080472 -0.317318
v -0.154643 0.280472 -0.267849
v -0.000000 0.619677 -0.266204
v 0.133102 0.619677 -0.230539
v 0.230539 0.619677 -0.133102
v 0.266204 0.619677 0.000000
v 0.230539 0.619677 0.133102
v 0.133102 0.619677 0.230540
v 0.000000 0.619677 0.266204
v -0.133102 0.619677 0.230540
v -0.230539 0.619677 0.133102
v -0.266204 0.619677 0.000000
v -0.230540 0.619677 -0.133102
v -0.133102 0.619677 -0.230539
vt 0.500000 0.503906
vt 0.417969 0.695312
vt 0.417969 0.503906
vt 0.332031 0.695312
vt 0.332031 0.503906
vt 0.250000 0.695312
vt 0.250000 0.503906
vt 0.167969 0.695312
vt 0.167969 0.503906
vt 0.082031 0.695312
vt 0.082031 0.503906
vt 0.000000 0.695312
vt 0.000000 0.503906
vt 1.000000 0.503906
vt 0.917969 0.695312
vt 0.917969 0.503906
vt 0.832031 0.695312
vt 0.832031 0.503906
vt 0.750000 0.695312
vt 0.750000 0.503906
vt 0.667969 0.695312
vt 0.667969 0.503906
vt 0.500000 0.695312
vt 0.582031 0.988281
vt 0.500000 0.988281
vt 0.582031 0.695312
vt 0.582031 0.503906
vt 0.250000 0.988281
vt 0.167969 0.988281
vt 0.417969 0.988281
vt 0.332031 0.988281
vt 0.667969 0.988281
vt 0.750000 0.988281
vt 0.832031 0.988281
vt 0.917969 0.988281
vt 1.000000 0.988281
vt 0.082031 0.988281
vt 0.000000 0.988281
vt 1.000000 0.695312
vn 0.0000 0.2746 -0.9615
vn 0.4895 0.2034 -0.8479
vn 0.4808 0.2746 -0.8327
vn 0.8479 0.2034 -0.4895
vn 0.8327 0.2746 -0.4808
vn 0.9791 0.2034 0.0000
vn 0.9615 0.2746 0.0000
vn 0.8479 0.2034 0.4895
vn 0.8327 0.2746 0.4808
vn 0.4895 0.2034 0.8479
vn 0.4808 0.2746 0.8327
vn 0.0000 0.2034 0.9791
vn 0.0000 0.2746 0.9615
vn -0.4895 0.2034 0.8479
vn -0.4808 0.2746 0.8327
vn -0.8479 0.2034 0.4895
vn -0.8327 0.2746 0.4808
vn -0.9791 0.2034 0.0000
vn -0.9615 0.2746 0.0000
vn -0.8479 0.2034 -0.4895
vn -0.8327 0.2746 -0.4808
vn 0.0000 0.2034 -0.9791
vn -0.4960 0.1260 -0.8591
vn 0.0000 0.1260 -0.9920
vn -0.4895 0.2034 -0.8479
vn -0.4808 0.2746 -0.8327
vn 0.9920 0.1260 0.0000
vn 0.8591 0.1260 0.4960
vn 0.4960 0.1260 -0.8591
vn 0.8591 0.1260 -0.4960
vn -0.8591 0.1260 -0.4960
vn -0.9920 0.1260 0.0000
vn -0.8591 0.1260 0.4960
vn -0.4960 0.1260 0.8591
vn 0.0000 0.1260 0.9920
vn 0.4960 0.1260 0.8591
usemtl None
s 1
f 1/1/1 4/2/2 3/3/3
f 3/3/3 6/4/4 5/5/5
f 5/5/5 8/6/6 7/7/7
f 7/7/7 10/8/8 9/9/9
f 9/9/9 12/10/10 11/11/11
f 11/11/11 14/12/12 13/13/13
f 13/14/13 16/15/14 15/16/15
f 15/16/15 18/17/16 17/18/17
f 17/18/17 20/19/18 19/20/19
f 19/20/19 22/21/20 21/22/21
f 2/23/22 36/24/23 25/25/24
f 21/22/21 24/26/25 23/27/26
f 23/27/26 2/23/22 1/1/1
f 10/8/8 28/28/27 29/29/28
f 4/2/2 25/25/24 26/30/29
f 8/6/6 27/31/30 28/28/27
f 24/26/25 35/32/31 36/24/23
f 6/4/4 26/30/29 27/31/30
f 22/21/20 34/33/32 35/32/31
f 20/19/18 33/34/33 34/33/32
f 18/17/16 32/35/34 33/34/33
f 16/15/14 31/36/35 32/35/34
f 14/12/12 30/37/36 31/38/35
f 12/10/10 29/29/28 30/37/36
f 1/1/1 2/23/22 4/2/2
f 3/3/3 4/2/2 6/4/4
f 5/5/5 6/4/4 8/6/6
f 7/7/7 8/6/6 10/8/8
f 9/9/9 10/8/8 12/10/10
f 11/11/11 12/10/10 14/12/12
f 13/14/13 14/39/12 16/15/14
f 15/16/15 16/15/14 18/17/16
f 17/18/17 18/17/16 20/19/18
f 19/20/19 20/19/18 22/21/20
f 2/23/22 24/26/25 36/24/23
f 21/22/21 22/21/20 24/26/25
f 23/27/26 24/26/25 2/23/22
f 10/8/8 8/6/6 28/28/27
f 4/2/2 2/23/22 25/25/24
f 8/6/6 6/4/4 27/31/30
f 24/26/25 22/21/20 35/32/31
f 6/4/4 4/2/2 26/30/29
f 22/21/20 20/19/18 34/33/32
f 20/19/18 18/17/16 33/34/33
f 18/17/16 16/15/14 32/35/34
f 16/15/14 14/39/12 31/36/35
f 14/12/12 12/10/10 30/37/36
f 12/10/10 10/8/8 29/29/28
