# Blender v2.79 (sub 0) OBJ File: 'launchpad.blend'
# www.blender.org
mtllib launchpad.mtl
o Circle
v -0.000000 0.000000 -0.500000
v -0.191342 0.000000 -0.461940
v -0.353553 0.000000 -0.353553
v -0.461940 0.000000 -0.191342
v -0.500000 0.000000 0.000000
v -0.461940 0.000000 0.191342
v -0.353553 0.000000 0.353553
v -0.191342 0.000000 0.461940
v -0.000000 0.000000 0.500000
v 0.191342 0.000000 0.461940
v 0.353553 0.000000 0.353554
v 0.461940 0.000000 0.191342
v 0.500000 0.000000 -0.000000
v 0.461940 0.000000 -0.191342
v 0.353553 0.000000 -0.353554
v 0.191341 0.000000 -0.461940
v -0.000000 0.075000 -0.272000
v -0.104090 0.075000 -0.251295
v -0.192333 0.075000 -0.192333
v -0.251295 0.075000 -0.104090
v -0.272000 0.075000 0.000000
v -0.251295 0.075000 0.104090
v -0.192333 0.075000 0.192333
v -0.104090 0.075000 0.251295
v -0.000000 0.075000 0.272000
v 0.104090 0.075000 0.251295
v 0.192333 0.075000 0.192333
v 0.251295 0.075000 0.104090
v 0.272000 0.075000 -0.000000
v 0.251295 0.075000 -0.104090
v 0.192333 0.075000 -0.192333
v 0.104090 0.075000 -0.251295
v -0.000000 0.051034 0.000000
v -0.000000 -0.100000 -0.500000
v -0.191342 -0.100000 -0.461940
v -0.353553 -0.100000 -0.353553
v -0.461940 -0.100000 -0.191342
v -0.500000 -0.100000 0.000000
v -0.461940 -0.100000 0.191342
v -0.353553 -0.100000 0.353553
v -0.191342 -0.100000 0.461940
v -0.000000 -0.100000 0.500000
v 0.191342 -0.100000 0.461940
v 0.353553 -0.100000 0.353554
v 0.461940 -0.100000 0.191342
v 0.500000 -0.100000 -0.000000
v 0.461940 -0.100000 -0.191342
v 0.353553 -0.100000 -0.353554
v 0.191341 -0.100000 -0.461940
v -0.000000 0.097028 -0.384781
v -0.000000 0.089134 -0.410866
v -0.157231 0.089134 -0.379590
v -0.147249 0.097028 -0.355492
v -0.290526 0.089134 -0.290526
v -0.272081 0.097028 -0.272081
v -0.379590 0.089134 -0.157231
v -0.355492 0.097028 -0.147249
v -0.410866 0.089134 0.000000
v -0.384781 0.097028 0.000000
v -0.379590 0.089134 0.157231
v -0.355492 0.097028 0.147249
v -0.290526 0.089134 0.290526
v -0.272081 0.097028 0.272081
v -0.157231 0.089134 0.379590
v -0.147249 0.097028 0.355492
v -0.000000 0.089134 0.410866
v -0.000000 0.097028 0.384781
v 0.157231 0.089134 0.379590
v 0.147249 0.097028 0.355492
v 0.290526 0.089134 0.290526
v 0.272081 0.097028 0.272082
v 0.379590 0.089134 0.157231
v 0.355492 0.097028 0.147249
v 0.410866 0.089134 -0.000000
v 0.384781 0.097028 -0.000000
v 0.379590 0.089134 -0.157232
v 0.355492 0.097028 -0.147250
v 0.290526 0.089134 -0.290526
v 0.272081 0.097028 -0.272082
v 0.157231 0.089134 -0.379590
v 0.147249 0.097028 -0.355492
v -0.147249 0.097028 -0.355492
v -0.000000 0.097028 -0.384781
v -0.272081 0.097028 -0.272081
v -0.355492 0.097028 -0.147249
v -0.384781 0.097028 0.000000
v -0.355492 0.097028 0.147249
v -0.272081 0.097028 0.272081
v -0.147249 0.097028 0.355492
v -0.000000 0.097028 0.384781
v 0.147249 0.097028 0.355492
v 0.272081 0.097028 0.272082
v 0.355492 0.097028 0.147249
v 0.384781 0.097028 -0.000000
v 0.355492 0.097028 -0.147250
v 0.272081 0.097028 -0.272082
v 0.147249 0.097028 -0.355492
vt 0.347540 0.432656
vt 0.336340 0.348574
vt 0.389148 0.370384
vt 0.076096 0.161210
vt 0.160283 0.172365
vt 0.116536 0.201568
vt 0.285268 0.474264
vt 0.307097 0.392296
vt 0.211815 0.104992
vt 0.138365 0.119604
vt 0.263459 0.172408
vt 0.211875 0.162126
vt 0.211755 0.431740
vt 0.263349 0.421500
vt 0.562500 0.029297
vt 0.500000 0.075814
vt 0.500000 0.029297
vt 0.285267 0.119601
vt 0.307181 0.201648
vt 0.034483 0.370384
vt 0.116449 0.392214
vt 0.076090 0.432655
vt 0.347539 0.161206
vt 0.336385 0.245395
vt 0.077008 0.296873
vt 0.087246 0.348466
vt 0.403759 0.296930
vt 0.389148 0.223476
vt 0.034487 0.223478
vt 0.019874 0.296930
vt 0.346624 0.296989
vt 0.087293 0.245290
vt 0.250000 0.029297
vt 0.187500 0.075814
vt 0.187500 0.029297
vt 0.812500 0.029297
vt 0.750000 0.075814
vt 0.750000 0.029297
vt 0.312500 0.029297
vt 0.250000 0.075814
vt 0.875000 0.029297
vt 0.812500 0.075814
vt 0.375000 0.029297
vt 0.312500 0.075814
vt 0.937500 0.075814
vt 0.875000 0.075814
vt 0.437500 0.029297
vt 0.375000 0.075814
vt 0.937500 0.029297
vt 1.000000 0.075814
vt 0.437500 0.075814
vt 0.160171 0.421456
vt 0.138360 0.474263
vt 0.000000 0.029297
vt 0.062500 0.075814
vt 0.000000 0.075814
vt 0.625000 0.029297
vt 0.562500 0.075814
vt 0.062500 0.029297
vt 0.125000 0.075814
vt 0.687500 0.029297
vt 0.625000 0.075814
vt 0.125000 0.029297
vt 0.687500 0.075814
vt 0.211816 0.296933
vt 0.312500 -0.000333
vt 0.875000 -0.000333
vt 0.375000 -0.000333
vt 0.937500 -0.000333
vt 0.437500 -0.000333
vt 1.000000 -0.000333
vt 1.000000 0.029297
vt 0.562500 -0.000333
vt 0.500000 -0.000333
vt 0.062500 -0.000333
vt 0.625000 -0.000333
vt 0.125000 -0.000333
vt 0.687500 -0.000333
vt 0.187500 -0.000333
vt 0.750000 -0.000333
vt 0.250000 -0.000333
vt 0.812500 -0.000333
vt 0.500000 0.086439
vt 0.562500 0.086439
vt 0.625000 0.086439
vt 0.687500 0.086439
vt 0.750000 0.086439
vt 0.812500 0.086439
vt 0.875000 0.086439
vt 0.937500 0.086439
vt 1.000000 0.086439
vt 0.062500 0.086439
vt 0.125000 0.086439
vt 0.187500 0.086439
vt 0.250000 0.086439
vt 0.312500 0.086439
vt 0.375000 0.086439
vt 0.437500 0.086439
vt 0.211814 0.488875
vt 0.000000 -0.000333
vt 0.000000 0.086439
vn -0.1355 0.9814 0.1355
vn -0.1352 0.9892 0.0560
vn -0.1771 0.9814 0.0733
vn 0.1355 0.9814 -0.1355
vn 0.0560 0.9892 -0.1352
vn 0.1035 0.9892 -0.1035
vn -0.0733 0.9814 0.1771
vn -0.1035 0.9892 0.1035
vn 0.0000 0.9814 -0.1917
vn 0.0733 0.9814 -0.1771
vn -0.0560 0.9892 -0.1352
vn 0.0000 0.9892 -0.1463
vn 0.0000 0.9892 0.1463
vn -0.0560 0.9892 0.1352
vn -0.3560 0.3668 -0.8595
vn 0.0000 0.8445 -0.5354
vn 0.0000 0.3668 -0.9303
vn -0.0733 0.9814 -0.1771
vn -0.1035 0.9892 -0.1035
vn 0.1771 0.9814 0.0733
vn 0.1035 0.9892 0.1035
vn 0.1355 0.9814 0.1355
vn -0.1355 0.9814 -0.1355
vn -0.1352 0.9892 -0.0560
vn 0.1463 0.9892 0.0000
vn 0.1352 0.9892 0.0560
vn -0.1917 0.9814 0.0000
vn -0.1771 0.9814 -0.0733
vn 0.1771 0.9814 -0.0733
vn 0.1917 0.9814 0.0000
vn -0.1463 0.9892 0.0000
vn 0.1352 0.9892 -0.0560
vn 0.9303 0.3668 0.0000
vn 0.4947 0.8445 0.2049
vn 0.8595 0.3668 0.3560
vn -0.8595 0.3668 0.3560
vn -0.5354 0.8445 0.0000
vn -0.9303 0.3668 0.0000
vn 0.8595 0.3668 -0.3560
vn 0.5354 0.8445 0.0000
vn -0.6578 0.3668 0.6578
vn -0.4947 0.8445 0.2049
vn 0.6578 0.3668 -0.6578
vn 0.4947 0.8445 -0.2049
vn -0.2049 0.8445 0.4947
vn -0.3786 0.8445 0.3786
vn 0.3560 0.3668 -0.8595
vn 0.3786 0.8445 -0.3786
vn -0.3560 0.3668 0.8595
vn 0.0000 0.8445 0.5354
vn 0.2049 0.8445 -0.4947
vn 0.0560 0.9892 0.1352
vn 0.0733 0.9814 0.1771
vn 0.0000 0.3668 0.9303
vn 0.2049 0.8445 0.4947
vn -0.6578 0.3668 -0.6578
vn -0.2049 0.8445 -0.4947
vn 0.3560 0.3668 0.8595
vn 0.3786 0.8445 0.3786
vn -0.8595 0.3668 -0.3560
vn -0.3786 0.8445 -0.3786
vn 0.6578 0.3668 0.6578
vn -0.4947 0.8445 -0.2049
vn 0.0000 1.0000 0.0000
vn 0.9239 0.0000 -0.3827
vn -0.7071 0.0000 0.7071
vn 0.7071 0.0000 -0.7071
vn -0.3827 0.0000 0.9239
vn 0.3827 0.0000 -0.9239
vn 0.0000 0.0000 1.0000
vn -0.3827 0.0000 -0.9239
vn 0.0000 0.0000 -1.0000
vn 0.3827 0.0000 0.9239
vn -0.7071 0.0000 -0.7071
vn 0.7071 0.0000 0.7071
vn -0.9239 0.0000 -0.3827
vn 0.9239 0.0000 0.3827
vn -1.0000 0.0000 0.0000
vn 1.0000 0.0000 0.0000
vn -0.9239 0.0000 0.3827
vn 0.0000 0.9571 -0.2896
vn -0.1108 0.9571 -0.2676
vn -0.2048 0.9571 -0.2048
vn -0.2676 0.9571 -0.1108
vn -0.2896 0.9571 0.0000
vn -0.2676 0.9571 0.1108
vn -0.2048 0.9571 0.2048
vn -0.1108 0.9571 0.2676
vn 0.0000 0.9571 0.2896
vn 0.1108 0.9571 0.2676
vn 0.2048 0.9571 0.2048
vn 0.2676 0.9571 0.1108
vn 0.2896 0.9571 0.0000
vn 0.2676 0.9571 -0.1108
vn 0.2048 0.9571 -0.2048
vn 0.1108 0.9571 -0.2676
vn 0.0000 0.9814 0.1917
usemtl None
s 1
f 79/1/1 30/2/2 77/3/3
f 63/4/4 24/5/5 23/6/6
f 81/7/7 31/8/8 79/1/1
f 67/9/9 24/5/5 65/10/10
f 67/9/9 26/11/11 25/12/12
f 81/7/7 17/13/13 32/14/14
f 2/15/15 51/16/16 1/17/17
f 69/18/18 27/19/19 26/11/11
f 57/20/20 19/21/21 55/22/22
f 71/23/23 28/24/24 27/19/19
f 57/20/20 21/25/25 20/26/26
f 75/27/27 28/24/24 73/28/28
f 61/29/29 21/25/25 59/30/30
f 75/27/27 30/2/2 29/31/31
f 61/29/29 23/6/6 22/32/32
f 13/33/33 72/34/34 12/35/35
f 6/36/36 58/37/37 5/38/38
f 14/39/39 74/40/40 13/33/33
f 7/41/41 60/42/42 6/36/36
f 15/43/43 76/44/44 14/39/39
f 7/41/41 64/45/45 62/46/46
f 16/47/47 78/48/48 15/43/43
f 8/49/49 66/50/50 64/45/45
f 1/17/17 80/51/51 16/47/47
f 55/22/22 18/52/52 53/53/53
f 9/54/54 68/55/55 66/56/50
f 3/57/56 52/58/57 2/15/15
f 10/59/58 70/60/59 68/55/55
f 4/61/60 54/62/61 3/57/56
f 12/35/35 70/60/59 11/63/62
f 4/61/60 58/37/37 56/64/63
f 23/6/6 33/65/64 22/32/32
f 24/5/5 33/65/64 23/6/6
f 30/2/2 33/65/64 29/31/31
f 22/32/32 33/65/64 21/25/25
f 29/31/31 33/65/64 28/24/24
f 21/25/25 33/65/64 20/26/26
f 28/24/24 33/65/64 27/19/19
f 20/26/26 33/65/64 19/21/21
f 27/19/19 33/65/64 26/11/11
f 19/21/21 33/65/64 18/52/52
f 26/11/11 33/65/64 25/12/12
f 18/52/52 33/65/64 17/13/13
f 32/14/14 33/65/64 31/8/8
f 25/12/12 33/65/64 24/5/5
f 31/8/8 33/65/64 30/2/2
f 17/13/13 33/65/64 32/14/14
f 13/33/33 47/66/65 14/39/39
f 6/36/36 40/67/66 7/41/41
f 14/39/39 48/68/67 15/43/43
f 7/41/41 41/69/68 8/49/49
f 15/43/43 49/70/69 16/47/47
f 8/49/49 42/71/70 9/72/54
f 1/17/17 35/73/71 2/15/15
f 16/47/47 34/74/72 1/17/17
f 9/54/54 43/75/73 10/59/58
f 2/15/15 36/76/74 3/57/56
f 10/59/58 44/77/75 11/63/62
f 3/57/56 37/78/76 4/61/60
f 11/63/62 45/79/77 12/35/35
f 4/61/60 38/80/78 5/38/38
f 12/35/35 46/81/79 13/33/33
f 5/38/38 39/82/80 6/36/36
f 83/83/81 52/58/57 82/84/82
f 82/84/82 54/62/61 84/85/83
f 84/85/83 56/64/63 85/86/84
f 86/87/85 56/64/63 58/37/37
f 86/87/85 60/42/42 87/88/86
f 88/89/87 60/42/42 62/46/46
f 88/89/87 64/45/45 89/90/88
f 90/91/89 64/45/45 66/50/50
f 91/92/90 66/56/50 68/55/55
f 92/93/91 68/55/55 70/60/59
f 93/94/92 70/60/59 72/34/34
f 93/94/92 74/40/40 94/95/93
f 94/95/93 76/44/44 95/96/94
f 96/97/95 76/44/44 78/48/48
f 96/97/95 80/51/51 97/98/96
f 97/98/96 51/16/16 83/83/81
f 53/53/53 17/13/13 50/99/97
f 79/1/1 31/8/8 30/2/2
f 63/4/4 65/10/10 24/5/5
f 81/7/7 32/14/14 31/8/8
f 67/9/9 25/12/12 24/5/5
f 67/9/9 69/18/18 26/11/11
f 81/7/7 50/99/97 17/13/13
f 2/15/15 52/58/57 51/16/16
f 69/18/18 71/23/23 27/19/19
f 57/20/20 20/26/26 19/21/21
f 71/23/23 73/28/28 28/24/24
f 57/20/20 59/30/30 21/25/25
f 75/27/27 29/31/31 28/24/24
f 61/29/29 22/32/32 21/25/25
f 75/27/27 77/3/3 30/2/2
f 61/29/29 63/4/4 23/6/6
f 13/33/33 74/40/40 72/34/34
f 6/36/36 60/42/42 58/37/37
f 14/39/39 76/44/44 74/40/40
f 7/41/41 62/46/46 60/42/42
f 15/43/43 78/48/48 76/44/44
f 7/41/41 8/49/49 64/45/45
f 16/47/47 80/51/51 78/48/48
f 8/49/49 9/72/54 66/50/50
f 1/17/17 51/16/16 80/51/51
f 55/22/22 19/21/21 18/52/52
f 9/54/54 10/59/58 68/55/55
f 3/57/56 54/62/61 52/58/57
f 10/59/58 11/63/62 70/60/59
f 4/61/60 56/64/63 54/62/61
f 12/35/35 72/34/34 70/60/59
f 4/61/60 5/38/38 58/37/37
f 13/33/33 46/81/79 47/66/65
f 6/36/36 39/82/80 40/67/66
f 14/39/39 47/66/65 48/68/67
f 7/41/41 40/67/66 41/69/68
f 15/43/43 48/68/67 49/70/69
f 8/49/49 41/69/68 42/71/70
f 1/17/17 34/74/72 35/73/71
f 16/47/47 49/70/69 34/74/72
f 9/54/54 42/100/70 43/75/73
f 2/15/15 35/73/71 36/76/74
f 10/59/58 43/75/73 44/77/75
f 3/57/56 36/76/74 37/78/76
f 11/63/62 44/77/75 45/79/77
f 4/61/60 37/78/76 38/80/78
f 12/35/35 45/79/77 46/81/79
f 5/38/38 38/80/78 39/82/80
f 83/83/81 51/16/16 52/58/57
f 82/84/82 52/58/57 54/62/61
f 84/85/83 54/62/61 56/64/63
f 86/87/85 85/86/84 56/64/63
f 86/87/85 58/37/37 60/42/42
f 88/89/87 87/88/86 60/42/42
f 88/89/87 62/46/46 64/45/45
f 90/91/89 89/90/88 64/45/45
f 91/92/90 90/101/89 66/56/50
f 92/93/91 91/92/90 68/55/55
f 93/94/92 92/93/91 70/60/59
f 93/94/92 72/34/34 74/40/40
f 94/95/93 74/40/40 76/44/44
f 96/97/95 95/96/94 76/44/44
f 96/97/95 78/48/48 80/51/51
f 97/98/96 80/51/51 51/16/16
f 53/53/53 18/52/52 17/13/13
